<svg xmlns="http://www.w3.org/2000/svg" xmlns:xlink="http://www.w3.org/1999/xlink" version="1.1" x="0px" y="0px" width="100px" height="100px" viewBox="0 0 100 100" enable-background="new 0 0 100 100" xml:space="preserve">
<g id="Layer_2">
</g>
<g id="Layer_1">
	<g>
		<path d="M55.072,2.212c-2.947-2.949-7.731-2.949-10.68,0L2.21,44.396c-2.947,2.948-2.947,7.729,0.002,10.678L44.927,97.79    c2.949,2.947,7.729,2.947,10.678,0l42.184-42.182c2.949-2.949,2.949-7.732,0-10.68L55.072,2.212z M93.547,51.366L51.363,93.547    c-0.375,0.375-0.803,0.454-1.098,0.454c-0.293,0-0.721-0.079-1.096-0.454L6.455,50.831C6.078,50.454,6,50.026,6,49.733    s0.078-0.721,0.453-1.095L48.634,6.455C49.011,6.079,49.439,6,49.732,6s0.721,0.079,1.096,0.453l42.719,42.718    C93.922,49.547,94,49.975,94,50.268C94,50.562,93.922,50.99,93.547,51.366z"/>
		<polygon points="33.976,31.572 39,40.641 39,58.804 33.944,67.868 39.185,70.79 45,60.364 45,39.09 39.224,28.664   "/>
		<polygon points="65.907,31.544 60.628,28.692 55,39.106 55,60.33 60.518,70.734 65.818,67.924 61,58.838 61,40.624   "/>
	</g>
</g>
</svg>